<svg width="24" height="24" viewBox="0 0 24 24" fill="none" xmlns="http://www.w3.org/2000/svg">
<g clip-path="url(#clip0_294_67820)">
<mask id="mask0_294_67820" style="mask-type:luminance" maskUnits="userSpaceOnUse" x="0" y="0" width="24" height="24">
<path d="M0 0H24V24H0V0Z" fill="white"/>
</mask>
<g mask="url(#mask0_294_67820)">
<path fill-rule="evenodd" clip-rule="evenodd" d="M0 12C0 5.37258 5.37258 0 12 0C18.6274 0 24 5.37258 24 12C24 18.6274 18.6274 24 12 24C5.37258 24 0 18.6274 0 12ZM12 2C6.47715 2 2 6.47715 2 12C2 17.5228 6.47715 22 12 22C17.5228 22 22 17.5228 22 12C22 6.47715 17.5228 2 12 2Z" fill="#FE0000"/>
</g>
<g clip-path="url(#clip1_294_67820)">
<path d="M7.66496 12.4682L13.0051 17.8083C13.1286 17.9319 13.2935 18 13.4693 18C13.6451 18 13.81 17.9319 13.9335 17.8083L14.3268 17.4151C14.5827 17.1589 14.5827 16.7425 14.3268 16.4867L9.8425 12.0025L14.3317 7.51326C14.4552 7.38965 14.5234 7.22487 14.5234 7.04916C14.5234 6.87326 14.4552 6.70848 14.3317 6.58477L13.9385 6.19171C13.8149 6.0681 13.6501 6 13.4743 6C13.2985 6 13.1336 6.0681 13.0101 6.19171L7.66496 11.5366C7.54115 11.6606 7.47315 11.8262 7.47354 12.0022C7.47315 12.1789 7.54115 12.3443 7.66496 12.4682Z" fill="#FE0000"/>
</g>
</g>
<defs>
<clipPath id="clip0_294_67820">
<rect width="24" height="24" fill="white"/>
</clipPath>
<clipPath id="clip1_294_67820">
<rect width="12" height="12" fill="white" transform="translate(17 18) rotate(-180)"/>
</clipPath>
</defs>
</svg>
