<svg width="47" height="16" viewBox="0 0 47 16" fill="none" xmlns="http://www.w3.org/2000/svg">
<g id="Logo" clip-path="url(#clip0_620_4287)">
<g id="Shape">
<path d="M33.6233 1.49335C32.8843 1.20017 31.7122 0.876465 30.2629 0.876465C26.563 0.876465 23.9576 2.84943 23.9416 5.67016C23.9109 7.7513 25.807 8.90721 27.2252 9.60113C28.6747 10.3102 29.1674 10.773 29.1674 11.4051C29.1527 12.3758 27.9962 12.8232 26.9175 12.8232C25.4217 12.8232 24.6202 12.5925 23.4022 12.0525L22.9089 11.821L22.3846 15.0736C23.2633 15.4739 24.8822 15.8292 26.563 15.8447C30.4942 15.8447 33.0535 13.9023 33.0839 10.8964C33.0988 9.2469 32.0976 7.98301 29.939 6.95023C28.6286 6.28725 27.8261 5.84021 27.8261 5.16187C27.8415 4.54519 28.5049 3.91355 29.9841 3.91355C31.2021 3.88262 32.097 4.17539 32.7749 4.46836L33.1138 4.62222L33.6233 1.49335Z" fill="white"/>
<path d="M20.0416 15.6288H16.295L18.6384 1.13912H22.3848L20.0416 15.6288Z" fill="white"/>
<path fill-rule="evenodd" clip-rule="evenodd" d="M43.2275 1.13912H40.3295C39.4358 1.13912 38.7569 1.40095 38.3713 2.34133L32.8062 15.6286H36.7374C36.7374 15.6286 37.3846 13.8402 37.5237 13.4551H42.334C42.4415 13.9638 42.781 15.6286 42.781 15.6286H46.25L43.2275 1.13912ZM38.6028 10.4956C38.9113 9.6632 40.0986 6.44152 40.0986 6.44152C40.0923 6.45392 40.1406 6.32007 40.2126 6.12048L40.2135 6.11804L40.2141 6.11643C40.3216 5.81831 40.4813 5.37579 40.5915 5.0543L40.8534 6.30282C40.8534 6.30282 41.5628 9.77117 41.7169 10.4956H38.6028Z" fill="white"/>
<path d="M13.1658 1.13912L9.49664 11.0197L9.09569 9.0158L9.09532 9.01455L7.7853 2.35711C7.56957 1.43168 6.90659 1.16964 6.08954 1.13912H0.0616675L0 1.43188C1.47018 1.80784 2.78511 2.34958 3.93727 3.02317L7.27659 15.6134H11.2385L17.1275 1.13912H13.1658Z" fill="white"/>
</g>
</g>
<defs>
<clipPath id="clip0_620_4287">
<rect width="46.25" height="14.9683" fill="white" transform="translate(0 0.876465)"/>
</clipPath>
</defs>
</svg>
