<svg width="17" height="17" viewBox="0 0 17 17" fill="none" xmlns="http://www.w3.org/2000/svg">
<g id="flaticon_9315963">
<path id="Vector" d="M1.83398 2.66537H2.87398C3.02352 2.66447 3.1685 2.71678 3.283 2.81296C3.39751 2.90915 3.47406 3.04292 3.49898 3.19037L3.83398 5.23537V5.26537L4.83398 11.2654C4.85736 11.38 4.9202 11.4828 5.01156 11.5559C5.10291 11.629 5.21701 11.6677 5.33398 11.6654H13.334C13.4482 11.6687 13.5601 11.6328 13.6511 11.5637C13.7421 11.4945 13.8066 11.3963 13.834 11.2854L15.334 5.28537C15.3525 5.2105 15.3535 5.13236 15.3368 5.05705C15.3201 4.98175 15.2863 4.91132 15.2379 4.85128C15.1894 4.79124 15.1278 4.74322 15.0577 4.71096C14.9877 4.67871 14.9111 4.66311 14.834 4.66537H4.75898L4.48398 3.03037C4.42208 2.64842 4.22591 2.3011 3.93078 2.05088C3.63565 1.80066 3.26091 1.66396 2.87398 1.66537H1.83398C1.70138 1.66537 1.5742 1.71805 1.48043 1.81182C1.38666 1.90559 1.33398 2.03276 1.33398 2.16537C1.33398 2.29798 1.38666 2.42516 1.48043 2.51892C1.5742 2.61269 1.70138 2.66537 1.83398 2.66537ZM14.194 5.66537L12.944 10.6654H5.75898L4.92398 5.66537H14.194Z" fill="#FE0000"/>
<path id="Vector_2" d="M12.334 12.6654C12.0373 12.6654 11.7473 12.7533 11.5006 12.9182C11.254 13.083 11.0617 13.3173 10.9482 13.5913C10.8346 13.8654 10.8049 14.167 10.8628 14.458C10.9207 14.749 11.0635 15.0163 11.2733 15.226C11.4831 15.4358 11.7504 15.5787 12.0413 15.6366C12.3323 15.6944 12.6339 15.6647 12.908 15.5512C13.1821 15.4377 13.4164 15.2454 13.5812 14.9987C13.746 14.7521 13.834 14.462 13.834 14.1654C13.834 13.7675 13.676 13.386 13.3946 13.1047C13.1133 12.8234 12.7318 12.6654 12.334 12.6654ZM12.334 14.6654C12.2351 14.6654 12.1384 14.6361 12.0562 14.5811C11.974 14.5262 11.9099 14.4481 11.872 14.3567C11.8342 14.2654 11.8243 14.1648 11.8436 14.0678C11.8629 13.9708 11.9105 13.8817 11.9804 13.8118C12.0504 13.7419 12.1394 13.6943 12.2364 13.675C12.3334 13.6557 12.434 13.6656 12.5253 13.7034C12.6167 13.7413 12.6948 13.8054 12.7497 13.8876C12.8047 13.9698 12.834 14.0665 12.834 14.1654C12.834 14.298 12.7813 14.4252 12.6875 14.5189C12.5938 14.6127 12.4666 14.6654 12.334 14.6654Z" fill="#FE0000"/>
<path id="Vector_3" d="M4.83398 14.1654C4.83398 14.462 4.92196 14.7521 5.08678 14.9987C5.2516 15.2454 5.48587 15.4377 5.75996 15.5512C6.03405 15.6647 6.33565 15.6944 6.62662 15.6366C6.91759 15.5787 7.18487 15.4358 7.39464 15.226C7.60442 15.0163 7.74728 14.749 7.80516 14.458C7.86304 14.167 7.83334 13.8654 7.7198 13.5913C7.60627 13.3173 7.41401 13.083 7.16734 12.9182C6.92067 12.7533 6.63066 12.6654 6.33398 12.6654C5.93616 12.6654 5.55463 12.8234 5.27332 13.1047C4.99202 13.386 4.83398 13.7675 4.83398 14.1654ZM6.83398 14.1654C6.83398 14.2643 6.80466 14.3609 6.74972 14.4432C6.69478 14.5254 6.61669 14.5895 6.52533 14.6273C6.43396 14.6652 6.33343 14.6751 6.23644 14.6558C6.13945 14.6365 6.05036 14.5889 5.98043 14.5189C5.9105 14.449 5.86288 14.3599 5.84359 14.2629C5.8243 14.1659 5.8342 14.0654 5.87204 13.974C5.90989 13.8827 5.97397 13.8046 6.0562 13.7496C6.13842 13.6947 6.23509 13.6654 6.33398 13.6654C6.46659 13.6654 6.59377 13.7181 6.68754 13.8118C6.78131 13.9056 6.83398 14.0328 6.83398 14.1654Z" fill="#FE0000"/>
</g>
</svg>
