<svg width="41" height="25" viewBox="0 0 41 25" fill="none" xmlns="http://www.w3.org/2000/svg">
<g id="Logo" clip-path="url(#clip0_620_4289)">
<path id="Right" d="M40.2504 12.3605C40.2504 19.1931 34.7225 24.721 27.8899 24.721C25.0058 24.721 22.362 23.7253 20.2676 22.0773C23.1517 19.8112 24.9714 16.309 24.9714 12.3605C24.9714 8.41202 23.1174 4.90988 20.2676 2.64378C22.362 0.995712 25.0058 0 27.8899 0C34.7225 0 40.2504 5.56223 40.2504 12.3605Z" fill="white" fill-opacity="0.6"/>
<path id="Middle" d="M20.2675 2.64356C20.2675 2.64356 20.2675 2.64355 20.2675 2.64356C23.1173 4.90965 24.9714 8.4118 24.9714 12.3603C24.9714 16.3088 23.1516 19.8109 20.2675 22.077L20.2331 22.077C17.3833 19.8453 15.5293 16.3088 15.5293 12.3604C15.5293 8.41187 17.3834 4.90973 20.2332 2.64363C20.2331 2.64361 20.2332 2.64366 20.2332 2.64363L20.2675 2.64356Z" fill="white" fill-opacity="0.8"/>
<path id="Left" d="M15.529 12.3605C15.529 8.41202 17.383 4.90988 20.2328 2.64378C18.1384 0.995712 15.4946 0 12.6105 0C5.7779 0 0.25 5.5279 0.25 12.3605C0.25 19.1931 5.7779 24.721 12.6105 24.721C15.4946 24.721 18.1384 23.7253 20.2328 22.0773C17.383 19.8455 15.529 16.309 15.529 12.3605Z" fill="white" fill-opacity="0.96"/>
</g>
<defs>
<clipPath id="clip0_620_4289">
<rect width="40" height="24.721" fill="white" transform="translate(0.25)"/>
</clipPath>
</defs>
</svg>
