<svg width="17" height="17" viewBox="0 0 17 17" fill="none" xmlns="http://www.w3.org/2000/svg">
<g id="flaticon_287623" clip-path="url(#clip0_294_59991)">
<g id="Group">
<g id="Group_2">
<path id="Vector" d="M16.3105 5.96437L16.2998 5.90431C16.2979 5.89503 16.2969 5.88575 16.2949 5.87671L15.1729 3.16675V1.83353H1.47655V3.16678L0.373047 5.87649C0.370609 5.88725 0.369141 5.898 0.367172 5.90846L0.356922 5.96437C0.341797 6.06131 0.333984 6.16068 0.333984 6.26199C0.333984 6.98662 0.738297 7.6165 1.33398 7.9385V15.4998H15.334V7.9385C15.9292 7.61646 16.334 6.98659 16.334 6.26199C16.334 6.16068 16.3257 6.06131 16.3105 5.96437ZM15.5571 5.83353H13.1079L12.8135 3.85428H14.751L15.5571 5.83353ZM2.14355 2.50003H14.5063V3.16678H2.14355V2.50003ZM12.5332 6.50003L12.5693 6.74196L12.3721 7.0044C12.1358 7.31934 11.7744 7.5 11.3814 7.5C10.9883 7.5 10.627 7.31934 10.3906 7.0044L10.1895 6.73634L10.1777 6.50003H12.5332ZM10.145 5.83353L10.0479 3.85428H12.1392L12.4341 5.83353H10.145ZM9.51027 6.5L9.52198 6.74171L9.32423 7.0044C9.08792 7.31934 8.72658 7.5 8.33398 7.5C7.94042 7.5 7.57958 7.31934 7.34277 7.0044L7.14061 6.73462L7.15233 6.5H9.51027ZM7.18605 5.83353L7.28614 3.85428H9.38086L9.47755 5.83353H7.18605ZM4.2373 5.83353L4.5283 3.85428H6.61911L6.51852 5.83353H4.2373ZM6.48436 6.50003L6.47214 6.7444L6.27683 7.0044C6.04002 7.31934 5.67917 7.5 5.28611 7.5C4.89305 7.5 4.5322 7.31934 4.29539 7.0044L4.10302 6.74831L4.13964 6.50003H6.48436ZM1.91652 3.85428H3.85452L3.56352 5.83353H1.11039L1.91652 3.85428ZM1.02342 6.50003H3.4658L3.41355 6.75906L3.22945 7.00443C2.99264 7.31937 2.6318 7.50003 2.23823 7.50003C1.6372 7.50003 1.13477 7.06937 1.02342 6.50003ZM13.334 14.8338H10.667V12.4998H11.0005C11.1846 12.4998 11.334 12.3508 11.334 12.1668C11.334 11.9827 11.1846 11.8338 11.0005 11.8338H10.667V9.49978H13.334V14.8338ZM14.667 14.8338H14.667H14.0005V8.83378H10.0005V14.8338H2.00048V8.1519C2.07811 8.16165 2.1582 8.16681 2.23827 8.16681C2.86133 8.16681 3.41502 7.8675 3.7622 7.40484C4.10986 7.8675 4.66308 8.16681 5.28614 8.16681C5.9092 8.16681 6.46242 7.8675 6.81008 7.40484C7.15723 7.8675 7.71095 8.16681 8.33402 8.16681C8.95708 8.16681 9.5098 7.8675 9.85745 7.40484C10.2051 7.8675 10.7583 8.16681 11.3814 8.16681C12.0045 8.16681 12.5577 7.8675 12.9053 7.40484C13.253 7.8675 13.8057 8.16681 14.4288 8.16681C14.5098 8.16681 14.5889 8.16168 14.667 8.1519V14.8338ZM14.4287 7.50003C14.0361 7.50003 13.6748 7.31937 13.4385 7.00443L13.2446 6.74712L13.207 6.50006H15.6435C15.5322 7.06937 15.0303 7.50003 14.4287 7.50003Z" fill="#FE0000"/>
</g>
</g>
<g id="Group_3">
<g id="Group_4">
<path id="Vector_2" d="M2.66602 8.83379V13.4998H9.33302V8.83379H2.66602ZM8.66602 12.8338H3.33302V9.49979H8.66602V12.8338Z" fill="#FE0000"/>
</g>
</g>
<g id="Group_5">
<g id="Group_6">
<path id="Vector_3" d="M7.99805 11.1668C7.90577 11.1668 7.82227 11.2039 7.7622 11.2644L7.0957 11.9314C7.03514 11.9915 6.99805 12.075 6.99805 12.1668C6.99805 12.3509 7.14745 12.4998 7.33105 12.4998C7.42333 12.4998 7.50683 12.4627 7.56689 12.4021L8.23339 11.7361C8.29395 11.6756 8.33105 11.5921 8.33105 11.4998C8.33105 11.3162 8.18214 11.1668 7.99805 11.1668Z" fill="#FE0000"/>
</g>
</g>
<g id="Group_7">
<g id="Group_8">
<path id="Vector_4" d="M7.99756 9.83379C7.90528 9.83379 7.82178 9.87091 7.76172 9.93144L5.76172 11.9309C5.70166 11.991 5.66406 12.075 5.66406 12.1668C5.66406 12.3509 5.81347 12.4998 5.99756 12.4998C6.08937 12.4998 6.17284 12.4627 6.23291 12.4021L8.23291 10.4026C8.29347 10.3426 8.33056 10.2586 8.33056 10.1668C8.33056 9.98269 8.18166 9.83379 7.99756 9.83379Z" fill="#FE0000"/>
</g>
</g>
</g>
<defs>
<clipPath id="clip0_294_59991">
<rect width="16" height="16" fill="white" transform="translate(0.333984 0.666656)"/>
</clipPath>
</defs>
</svg>
