<svg width="73" height="57" viewBox="0 0 73 57" fill="none" xmlns="http://www.w3.org/2000/svg">
<path opacity="0.2" fill-rule="evenodd" clip-rule="evenodd" d="M12.2606 53.5359L12.2517 53.5302C8.63487 51.2431 5.82944 47.9641 3.81459 43.7795C1.78114 39.5562 0.808594 34.5391 0.808594 28.7998C0.808594 23.0605 1.78114 18.0435 3.81459 13.8202C5.82925 9.63592 8.63679 6.37655 12.2607 4.13578C15.8645 1.85926 19.9331 0.73584 24.4086 0.73584C28.9245 0.73584 32.9977 1.85567 36.5623 4.13933C40.1834 6.38 42.989 9.63813 45.0026 13.8202C47.0361 18.0435 48.0086 23.0605 48.0086 28.7998C48.0086 34.5391 47.0361 39.5562 45.0026 43.7795C42.9878 47.9641 40.1823 51.2431 36.5655 53.5302L36.5589 53.5344C32.993 55.7697 28.9214 56.8638 24.4086 56.8638C19.9387 56.8638 15.8735 55.7674 12.2696 53.5414L12.2606 53.5359ZM35.4966 5.83184C32.2806 3.76784 28.5846 2.73584 24.4086 2.73584C20.2806 2.73584 16.5846 3.76784 13.3206 5.83184C10.0566 7.84784 7.48859 10.7998 5.61659 14.6878C3.74459 18.5758 2.80859 23.2798 2.80859 28.7998C2.80859 34.3198 3.74459 39.0238 5.61659 42.9118C7.48859 46.7998 10.0566 49.7758 13.3206 51.8398C16.5846 53.8558 20.2806 54.8638 24.4086 54.8638C28.5846 54.8638 32.2806 53.8558 35.4966 51.8398C38.7606 49.7758 41.3286 46.7998 43.2006 42.9118C45.0726 39.0238 46.0086 34.3198 46.0086 28.7998C46.0086 23.2798 45.0726 18.5758 43.2006 14.6878C41.3286 10.7998 38.7606 7.84784 35.4966 5.83184ZM28.3162 41.747L28.3289 41.7376C29.3904 40.9501 30.3509 39.5974 31.083 37.444L31.0888 37.4272L31.0948 37.4104C31.8524 35.3061 32.2726 32.4623 32.2726 28.7998C32.2726 25.1374 31.8524 22.2936 31.0948 20.1893L31.0888 20.1725L31.083 20.1556C30.3509 18.0022 29.3904 16.6496 28.3289 15.862L28.3162 15.8526L28.3037 15.8431C27.243 15.0299 25.9762 14.5998 24.4086 14.5998C22.9069 14.5998 21.6283 15.0203 20.5012 15.8524C19.4727 16.6459 18.509 18.0112 17.7285 20.1723C17.0123 22.2876 16.6166 25.1389 16.6166 28.7998C16.6166 32.4608 17.0123 35.312 17.7285 37.4273C18.5089 39.5885 19.4727 40.9537 20.5012 41.7472C21.6282 42.5794 22.9069 42.9998 24.4086 42.9998C25.9762 42.9998 27.243 42.5698 28.3037 41.7566L28.3162 41.747ZM19.2966 43.3438C17.8566 42.2398 16.7046 40.4878 15.8406 38.0878C15.0246 35.6878 14.6166 32.5918 14.6166 28.7998C14.6166 25.0078 15.0246 21.9118 15.8406 19.5118C16.7046 17.1118 17.8566 15.3598 19.2966 14.2558C20.7846 13.1518 22.4886 12.5998 24.4086 12.5998C26.3766 12.5998 28.0806 13.1518 29.5206 14.2558C31.0086 15.3598 32.1606 17.1118 32.9766 19.5118C33.8406 21.9118 34.2726 25.0078 34.2726 28.7998C34.2726 32.5918 33.8406 35.6878 32.9766 38.0878C32.1606 40.4878 31.0086 42.2398 29.5206 43.3438C28.0806 44.4478 26.3766 44.9998 24.4086 44.9998C22.4886 44.9998 20.7846 44.4478 19.2966 43.3438ZM57.1705 55.9998V14.9598H47.0905V1.59984H72.8345V55.9998H57.1705ZM59.1705 12.9598V53.9998H70.8345V3.59984H49.0905V12.9598H59.1705Z" fill="white"/>
</svg>
