<svg width="32" height="32" viewBox="0 0 32 32" fill="none" xmlns="http://www.w3.org/2000/svg">
<g clip-path="url(#clip0_294_67860)">
<path d="M21.3008 0H10.6535C8.7745 0.00213068 7.25186 1.52477 7.25 3.40376V28.5964C7.25186 30.4754 8.7745 31.998 10.6535 31.9999H21.3008C23.1798 31.998 24.7024 30.4754 24.7045 28.5964V3.40376C24.7024 1.52477 23.1798 0.00213068 21.3008 0ZM23.2498 28.5964C23.2488 29.6724 22.3768 30.5444 21.3008 30.5455H10.6535C9.5775 30.5444 8.70552 29.6724 8.70446 28.5964V3.40376C8.70552 2.3275 9.5775 1.45552 10.6535 1.45446H21.3008C22.3768 1.45552 23.2488 2.3275 23.2498 3.40376V28.5964Z" fill="white"/>
<path d="M18.1574 2.90918H13.7938C13.3921 2.90918 13.0664 3.23464 13.0664 3.63627C13.0664 4.03791 13.3921 4.36364 13.7938 4.36364H18.1574C18.559 4.36364 18.8845 4.03791 18.8845 3.63627C18.8845 3.23464 18.559 2.90918 18.1574 2.90918Z" fill="white"/>
<path d="M17.4326 27.6363C17.4326 28.4398 16.7814 29.091 15.9782 29.091C15.1746 29.091 14.5234 28.4398 14.5234 27.6363C14.5234 26.833 15.1746 26.1818 15.9782 26.1818C16.7814 26.1818 17.4326 26.833 17.4326 27.6363Z" fill="white"/>
</g>
<defs>
<clipPath id="clip0_294_67860">
<rect width="32" height="32" fill="white"/>
</clipPath>
</defs>
</svg>
